HIERARCHY
ROOT Hips
{
    OFFSET   0.000000   0.000000   0.000000
    CHANNELS 6 Xposition Yposition Zposition Zrotation Xrotation Yrotation
    JOINT Chest
    {
        OFFSET   0.000000   8.007240   0.000000
        CHANNELS 3 Zrotation Xrotation Yrotation
        JOINT Chest2
        {
            OFFSET   0.000000  22.077100   0.000000
            CHANNELS 3 Zrotation Xrotation Yrotation
            JOINT Neck
            {
                OFFSET   0.000000  23.254800   0.000000
                CHANNELS 3 Zrotation Xrotation Yrotation
                JOINT Head
                {
                    OFFSET   0.000000  14.370000   1.956600
                    CHANNELS 3 Zrotation Xrotation Yrotation
                    End Site
                    {
                        OFFSET   0.000000  19.566000   0.000000
                    }
                }
            }
            JOINT LeftCollar
            {
                OFFSET   3.911900  19.017000  -0.467064
                CHANNELS 3 Zrotation Xrotation Yrotation
                JOINT LeftShoulder
                {
                    OFFSET  10.383700   0.000000   0.000000
                    CHANNELS 3 Zrotation Xrotation Yrotation
                    JOINT LeftElbow
                    {
                        OFFSET  26.662100   0.001476   0.000517
                        CHANNELS 3 Zrotation Xrotation Yrotation
                        JOINT LeftWrist
                        {
                            OFFSET  28.869000  -0.000025  -0.000106
                            CHANNELS 3 Zrotation Xrotation Yrotation
                            JOINT LeftFinger0
                            {
                                OFFSET   2.044660  -2.323460   3.252850
                                CHANNELS 3 Zrotation Xrotation Yrotation
                                JOINT LeftFinger01
                                {
                                    OFFSET   3.088130   0.000000   0.000000
                                    CHANNELS 3 Zrotation Xrotation Yrotation
                                    JOINT LeftFinger02
                                    {
                                        OFFSET   2.639460   0.000000   0.000000
                                        CHANNELS 3 Zrotation Xrotation Yrotation
                                        End Site
                                        {
                                            OFFSET   2.582190   0.000000   0.000000
                                        }
                                    }
                                }
                            }
                            JOINT LeftFinger1
                            {
                                OFFSET   8.364480   0.000000   3.252850
                                CHANNELS 3 Zrotation Xrotation Yrotation
                                JOINT LeftFinger11
                                {
                                    OFFSET   4.646930   0.000000   0.000000
                                    CHANNELS 3 Zrotation Xrotation Yrotation
                                    JOINT LeftFinger12
                                    {
                                        OFFSET   2.323460   0.000000   0.000000
                                        CHANNELS 3 Zrotation Xrotation Yrotation
                                        End Site
                                        {
                                            OFFSET   2.273050   0.000000   0.000000
                                        }
                                    }
                                }
                            }
                            JOINT LeftFinger2
                            {
                                OFFSET   8.364490   0.000015   1.078090
                                CHANNELS 3 Zrotation Xrotation Yrotation
                                JOINT LeftFinger21
                                {
                                    OFFSET   5.111620   0.000000   0.000000
                                    CHANNELS 3 Zrotation Xrotation Yrotation
                                    JOINT LeftFinger22
                                    {
                                        OFFSET   2.788160   0.000016   0.000000
                                        CHANNELS 3 Zrotation Xrotation Yrotation
                                        End Site
                                        {
                                            OFFSET   2.727660   0.000000   0.000000
                                        }
                                    }
                                }
                            }
                            JOINT LeftFinger3
                            {
                                OFFSET   7.899780   0.000017  -1.078090
                                CHANNELS 3 Zrotation Xrotation Yrotation
                                JOINT LeftFinger31
                                {
                                    OFFSET   4.646930   0.000000   0.000000
                                    CHANNELS 3 Zrotation Xrotation Yrotation
                                    JOINT LeftFinger32
                                    {
                                        OFFSET   2.323470   0.000000   0.000000
                                        CHANNELS 3 Zrotation Xrotation Yrotation
                                        End Site
                                        {
                                            OFFSET   2.273050   0.000000   0.000000
                                        }
                                    }
                                }
                            }
                            JOINT LeftFinger4
                            {
                                OFFSET   7.435090   0.000000  -3.252850
                                CHANNELS 3 Zrotation Xrotation Yrotation
                                JOINT LeftFinger41
                                {
                                    OFFSET   3.717550   0.000000   0.000000
                                    CHANNELS 3 Zrotation Xrotation Yrotation
                                    JOINT LeftFinger42
                                    {
                                        OFFSET   1.858770   0.000000   0.000000
                                        CHANNELS 3 Zrotation Xrotation Yrotation
                                        End Site
                                        {
                                            OFFSET   1.818440   0.000000   0.000000
                                        }
                                    }
                                }
                            }
                        }
                    }
                }
            }
            JOINT RightCollar
            {
                OFFSET  -3.911900  19.017000  -0.467063
                CHANNELS 3 Zrotation Xrotation Yrotation
                JOINT RightShoulder
                {
                    OFFSET -10.383700   0.000019   0.000000
                    CHANNELS 3 Zrotation Xrotation Yrotation
                    JOINT RightElbow
                    {
                        OFFSET -26.662100   0.001175   0.000102
                        CHANNELS 3 Zrotation Xrotation Yrotation
                        JOINT RightWrist
                        {
                            OFFSET -28.869000   0.000016  -0.000079
                            CHANNELS 3 Zrotation Xrotation Yrotation
                            JOINT RightFinger0
                            {
                                OFFSET  -2.044660  -2.323490   3.252850
                                CHANNELS 3 Zrotation Xrotation Yrotation
                                JOINT RightFinger01
                                {
                                    OFFSET  -3.088140   0.000000   0.000000
                                    CHANNELS 3 Zrotation Xrotation Yrotation
                                    JOINT RightFinger02
                                    {
                                        OFFSET  -2.639460   0.000000   0.000000
                                        CHANNELS 3 Zrotation Xrotation Yrotation
                                        End Site
                                        {
                                            OFFSET  -2.582190   0.000000   0.000000
                                        }
                                    }
                                }
                            }
                            JOINT RightFinger1
                            {
                                OFFSET  -8.364480   0.000000   3.252850
                                CHANNELS 3 Zrotation Xrotation Yrotation
                                JOINT RightFinger11
                                {
                                    OFFSET  -4.646930   0.000000   0.000000
                                    CHANNELS 3 Zrotation Xrotation Yrotation
                                    JOINT RightFinger12
                                    {
                                        OFFSET  -2.323470   0.000000   0.000000
                                        CHANNELS 3 Zrotation Xrotation Yrotation
                                        End Site
                                        {
                                            OFFSET  -2.273050   0.000000   0.000000
                                        }
                                    }
                                }
                            }
                            JOINT RightFinger2
                            {
                                OFFSET  -8.364480   0.000000   1.078090
                                CHANNELS 3 Zrotation Xrotation Yrotation
                                JOINT RightFinger21
                                {
                                    OFFSET  -5.111620   0.000000   0.000000
                                    CHANNELS 3 Zrotation Xrotation Yrotation
                                    JOINT RightFinger22
                                    {
                                        OFFSET  -2.788160   0.000000   0.000000
                                        CHANNELS 3 Zrotation Xrotation Yrotation
                                        End Site
                                        {
                                            OFFSET  -2.727660   0.000000   0.000000
                                        }
                                    }
                                }
                            }
                            JOINT RightFinger3
                            {
                                OFFSET  -7.899780   0.000000  -1.078090
                                CHANNELS 3 Zrotation Xrotation Yrotation
                                JOINT RightFinger31
                                {
                                    OFFSET  -4.646930   0.000000   0.000000
                                    CHANNELS 3 Zrotation Xrotation Yrotation
                                    JOINT RightFinger32
                                    {
                                        OFFSET  -2.323470   0.000000   0.000000
                                        CHANNELS 3 Zrotation Xrotation Yrotation
                                        End Site
                                        {
                                            OFFSET  -2.273050   0.000000   0.000000
                                        }
                                    }
                                }
                            }
                            JOINT RightFinger4
                            {
                                OFFSET  -7.435090   0.000000  -3.252850
                                CHANNELS 3 Zrotation Xrotation Yrotation
                                JOINT RightFinger41
                                {
                                    OFFSET  -3.717550   0.000000   0.000000
                                    CHANNELS 3 Zrotation Xrotation Yrotation
                                    JOINT RightFinger42
                                    {
                                        OFFSET  -1.858770   0.000000   0.000000
                                        CHANNELS 3 Zrotation Xrotation Yrotation
                                        End Site
                                        {
                                            OFFSET  -1.818440   0.000000   0.000000
                                        }
                                    }
                                }
                            }
                        }
                    }
                }
            }
        }
    }
    JOINT LeftHip
    {
        OFFSET   9.783040   0.000000   0.000000
        CHANNELS 3 Zrotation Xrotation Yrotation
        JOINT LeftKnee
        {
            OFFSET   0.000032 -41.789100  -0.002222
            CHANNELS 3 Zrotation Xrotation Yrotation
            JOINT LeftAnkle
            {
                OFFSET   0.000087 -41.133200  -0.000135
                CHANNELS 3 Zrotation Xrotation Yrotation
                JOINT LeftToe
                {
                    OFFSET   0.000000  -6.358960  14.674500
                    CHANNELS 3 Zrotation Xrotation Yrotation
                    End Site
                    {
                        OFFSET   0.000000   0.000000   3.913200
                    }
                }
            }
        }
    }
    JOINT RightHip
    {
        OFFSET  -9.783040   0.000000   0.000000
        CHANNELS 3 Zrotation Xrotation Yrotation
        JOINT RightKnee
        {
            OFFSET   0.000047 -41.789100  -0.000896
            CHANNELS 3 Zrotation Xrotation Yrotation
            JOINT RightAnkle
            {
                OFFSET  -0.000117 -41.133300  -0.000248
                CHANNELS 3 Zrotation Xrotation Yrotation
                JOINT RightToe
                {
                    OFFSET   0.000000  -6.358970  14.674500
                    CHANNELS 3 Zrotation Xrotation Yrotation
                    End Site
                    {
                        OFFSET   0.000000   0.000000   3.913200
                    }
                }
            }
        }
    }
}
MOTION
Frames: 5
Frame Time:   0.016667
 -0.451005  89.537000   1.466310  -2.810630  -3.036830   1.946930   1.647440   3.855180  -0.844390   3.363210   7.683970  -1.805930   0.552290  -0.588682  -0.004185   0.907845  -1.192630   9.112360  -9.094850   2.539990  -1.594870 -67.207700  12.564400  -7.845690  -2.800220 -13.465100 -10.717200   2.162520  -3.994270   8.958000  44.250300  30.045400 -66.709100 -18.738600   0.002267   0.003080  -4.369310   0.002414   0.004706 -30.044500   5.165900  -8.863880 -24.909200   0.003939   0.011486 -17.437500   0.002862   0.005181 -27.666300   0.928172  -1.750990 -30.076900   0.005821   0.000128 -20.031300   0.000292   0.000087 -27.182000  -2.400350   4.665850 -28.149300   0.002289   0.002618 -18.747400   0.000288   0.001769 -27.057300  -2.539980   4.981250 -40.751000   0.000326  -0.005772 -27.140200   0.000000  -0.003414   6.556540  -0.326596  12.100800  67.272100   6.216570   1.572480  -1.454280 -11.922600  10.179900  -6.491100 -12.345700   0.812939 -44.884400  41.759800  80.677100  28.514000   0.002162  -0.001131   9.257000  -0.001276  -0.005750  29.370300   7.360590  12.825500  24.708500   0.001633   0.001055  17.295900   0.000287   0.002503  27.751500   3.942410   7.443890  32.078800  -0.012762  -0.006446  21.364500   0.004404   0.005458  28.151000   1.643860   3.068650  33.448700   0.000581   0.001242  22.276800   0.001160  -0.000738  31.544500  -0.534419  -0.870324  47.325100   0.001235   0.007993  31.518500   0.000922  -0.001593   2.804430   6.998750   5.002810   0.361929   0.560027   7.469540  -1.193170  -3.911550   0.043483   0.000000   0.000000   0.000000   1.304800   2.069020  -4.329700   1.465730   4.215940  -6.921340  -2.835880  -2.298550  -1.714630  -0.000000   0.000000   0.000000
 -0.457964  89.536900   1.457770  -2.805560  -3.051280   1.954930   1.646990   3.861910  -0.834985   3.361440   7.697730  -1.787220   0.530382  -0.562622  -0.004199   0.871768  -1.140060   9.147380  -9.094820   2.528910  -1.602360 -67.213400  12.567600  -7.843230  -2.803510 -13.473200 -10.725000   2.178540  -4.006060   8.958400  44.243300  30.026000 -66.683000 -18.748800   0.002265   0.003072  -4.374410   0.002410   0.004696 -30.049000   5.165410  -8.856280 -24.912700   0.003941   0.011485 -17.439500   0.002861   0.005181 -27.666100   0.928376  -1.750420 -30.086200   0.005822   0.000125 -20.037500   0.000292   0.000080 -27.182000  -2.400130   4.666030 -28.161600   0.002287   0.002624 -18.755600   0.000288   0.001773 -27.064800  -2.539850   4.976690 -40.762100   0.000327  -0.005769 -27.147600   0.000000  -0.003413   6.556290  -0.324175  12.090700  67.341600   6.179370   1.566250  -1.517590 -11.737000  10.469800  -6.679630 -12.112100   0.713034 -45.047900  41.974400  80.931600  28.513700   0.002174  -0.005004   9.256860  -0.001274  -0.005744  29.403700   7.372070  12.834800  24.738800   0.001628   0.001068  17.317100   0.000301   0.002504  27.747800   3.955620   7.471670  32.058500  -0.012762  -0.006456  21.351000   0.004409   0.005457  28.146300   1.685520   3.149700  33.401800   0.000592   0.001245  22.245700   0.001160  -0.000741  31.505000  -0.502090  -0.817292  47.268300   0.001240   0.008004  31.480700   0.000923  -0.001590   2.802730   7.013880   5.003030   0.361785   0.542695   7.469280  -1.197560  -3.897460   0.036104   0.000000   0.000000  -0.000000   1.305520   2.075360  -4.329720   1.465380   4.221190  -6.921750  -2.835990  -2.298620  -1.722940  -0.000000   0.000000   0.000000
 -0.469629  89.536900   1.442960  -2.797140  -3.079630   1.969050   1.646720   3.876910  -0.819732   3.360520   7.728190  -1.757110   0.490629  -0.520872  -0.004218   0.806265  -1.055850   9.213820  -9.094230   2.517820  -1.621290 -67.223600  12.574500  -7.840890  -2.809430 -13.489600 -10.737400   2.202280  -4.030670   8.958950  44.236300  30.006500 -66.656900 -18.767700   0.002255   0.003055  -4.383870   0.002404   0.004686 -30.059200   5.164920  -8.848680 -24.920900   0.003942   0.011481 -17.444600   0.002859   0.005180 -27.665900   0.928661  -1.749840 -30.103100   0.005824   0.000106 -20.048700   0.000290   0.000072 -27.182100  -2.399820   4.666210 -28.179900   0.002282   0.002638 -18.767800   0.000288   0.001782 -27.074200  -2.539660   4.970140 -40.776100   0.000331  -0.005761 -27.156900   0.000000  -0.003409   6.555480  -0.310658  12.055000  67.473600   6.080480   1.523110  -1.639200 -11.327500  11.200700  -7.164170 -11.547300   0.513624 -45.384600  42.313500  81.445900  28.511700   0.002200  -0.011567   9.255880  -0.001270  -0.005739  29.474100   7.433030  12.899500  24.806900   0.001619   0.001096  17.364800   0.000327   0.002509  27.731800   4.014400   7.588280  32.020500  -0.012763  -0.006477  21.325700   0.004420   0.005454  28.132400   1.806390   3.380320  33.355000   0.000619   0.001254  22.214500   0.001160  -0.000747  31.443400  -0.396430  -0.643052  47.178000   0.001258   0.008035  31.420600   0.000925  -0.001580   2.800060   7.038320   5.003340   0.361642   0.525364   7.469020  -1.205220  -3.877810   0.023264  -0.000000   0.000000   0.000000   1.307000   2.091880  -4.329730   1.465260   4.228350  -6.922180  -2.836400  -2.299180  -1.738360   0.000000   0.000000   0.000000
 -0.479961  89.536900   1.429710  -2.790250  -3.109240   1.982160   1.648490   3.895600  -0.805733   3.363850   7.765900  -1.730110   0.453299  -0.491219  -0.004226   0.744765  -0.996094   9.278080  -9.088940   2.520520  -1.650920 -67.228500  12.583400  -7.865550  -2.814760 -13.509100 -10.744500   2.217150  -4.070200   8.958540  44.227000  30.013700 -66.668700 -18.788600   0.002234   0.003040  -4.394320   0.002401   0.004688 -30.073800   5.169930  -8.849890 -24.933300   0.003938   0.011475 -17.453200   0.002862   0.005181 -27.666600   0.928779  -1.755610 -30.122000   0.005827   0.000045 -20.061300   0.000279   0.000072 -27.183900  -2.399690   4.664390 -28.191600   0.002276   0.002658 -18.775600   0.000285   0.001795 -27.076500  -2.539580   4.966740 -40.779500   0.000340  -0.005751 -27.159200  -0.000051  -0.003405   6.560010  -0.279893  11.984700  67.614300   5.909270   1.416040  -1.747790 -10.815700  12.259000  -7.913290 -10.716900   0.216163 -45.786200  42.566600  82.012400  28.254000   0.002231  -0.018460   9.127010  -0.001269  -0.008181  29.555200   7.556230  13.061900  24.895000   0.001613   0.001138  17.426500   0.000354   0.002524  27.703700   4.129130   7.813430  31.970300  -0.012764  -0.006501  21.292200   0.004437   0.005450  28.113900   2.009400   3.763880  33.355500   0.000656   0.001267  22.214900   0.001166  -0.000758  31.392200  -0.205074  -0.325050  47.100300   0.001288   0.008088  31.368900   0.000930  -0.001561   2.799210   7.052410   4.998880   0.361860   0.538785   7.470250  -1.212400  -3.871950   0.012166  -0.000000   0.000000   0.000000   1.305780   2.117020  -4.329670   1.467270   4.229660  -6.922100  -2.837210  -2.302230  -1.754730  -0.000000   0.000000   0.000000
 -0.488652  89.537000   1.416150  -2.783800  -3.148030   1.995920   1.654240   3.921410  -0.797598   3.375020   7.817650  -1.714650   0.409520  -0.463169  -0.004228   0.672758  -0.939449   9.363700  -9.080440   2.528950  -1.686490 -67.229600  12.592300  -7.910310  -2.821390 -13.530700 -10.754900   2.224020  -4.096940   8.954340  44.220400  30.035000 -66.699200 -18.808600   0.002211   0.003010  -4.404290   0.002397   0.004691 -30.089100   5.176800  -8.851120 -24.946400   0.003934   0.011468 -17.462500   0.002864   0.005181 -27.668100   0.928817  -1.761370 -30.138300   0.005831   0.000000 -20.072100   0.000270   0.000072 -27.186600  -2.399660   4.662580 -28.198200   0.002269   0.002684 -18.780000   0.000281   0.001813 -27.076800  -2.539560   4.965340 -40.780000   0.000351  -0.005737 -27.159500  -0.000133  -0.003399   6.566970  -0.237788  11.894900  67.775700   5.723140   1.217120  -1.960010 -10.129400  13.702500  -8.849040  -9.694720   0.018779 -46.258500  42.751600  82.734600  27.662400   0.002268  -0.022662   8.831190  -0.001267  -0.011755  29.653300   7.753380  13.342800  25.010500   0.001603   0.001186  17.507400   0.000385   0.002544  27.675800   4.306340   8.154950  31.937700  -0.012765  -0.006529  21.270500   0.004457   0.005444  28.100400   2.276890   4.265550  33.359400   0.000705   0.001282  22.217400   0.001171  -0.000773  31.362600   0.052299   0.099304  47.056300   0.001327   0.008155  31.339500   0.000935  -0.001535   2.798350   7.073280   4.990810   0.362249   0.557052   7.473490  -1.219420  -3.867180  -0.000214  -0.000000   0.000000  -0.000000   1.301130   2.150450  -4.329650   1.472440   4.231240  -6.921480  -2.838520  -2.308820  -1.771480   0.000000   0.000000  -0.000000
